# xmcd
#
# Track frame offsets: 
#        150
#        16280
#        30655
#        47840
#        58345
#        71952
#        88305
#        104212
#        120342
#        132520
#        144472
#        158727
#        170662
#        195037
#        212595
#        229987
#
# Disc length: 3256 seconds
#
# Revision: 3
# Processed by: cddbd v1.5.2PL0 Copyright (c) Steve Scherf et al.
# Submitted via: ExactAudioCopy v0.95b4
#
DISCID=ec0cb610
DTITLE=Ricky Skaggs - Country Gentleman  The Best Of Ricky Skaggs - Di
DTITLE=sc 2
DYEAR=1998
DGENRE=Country
TTITLE0=Love's Gonna Get You Someday
TTITLE1=I Wonder If I Care As Much
TTITLE2=Love Can't Ever Get Better Than This 
TTITLE3=I'm Tired
TTITLE4=(Angel On My Mind) That's Why I'm Walkin'
TTITLE5=Thanks Again
TTITLE6=Old Kind Of Love Goin' Round
TTITLE7=Lovin' Only Me
TTITLE8=Let It Be You
TTITLE9=Heartbreak Hurricane
TTITLE10=Hummingbird
TTITLE11=He Was On To Somethin' (So He Made You)
TTITLE12=Restless
TTITLE13=Life's Too Long (To Live Like This)
TTITLE14=Same Ol' Love
TTITLE15=From The Word Love
EXTD=ID3G:   2
EXTT0=
EXTT1=
EXTT2=
EXTT3=
EXTT4=
EXTT5=
EXTT6=
EXTT7=
EXTT8=
EXTT9=
EXTT10=
EXTT11=
EXTT12=
EXTT13=
EXTT14=
EXTT15=
PLAYORDER=
